<?xml version="1.0"?>
<svg width="24" height="24" xmlns="http://www.w3.org/2000/svg" xmlns:svg="http://www.w3.org/2000/svg" preserveAspectRatio="xMidYMid meet">
 <metadata>Created by potrace 1.12, written by Peter Selinger 2001-2015</metadata>
 <g>
  <title>Layer 1</title>
  <path fill="#0000bf" id="svg_2" d="m12.860923,0.267851c-0.779952,0.199138 -1.842016,0.431464 -6.554919,1.427148c-2.422834,0.497844 -4.812477,1.01228 -5.310319,1.128444l-0.912711,0.215731l-0.049784,8.977755l-0.03319,8.977756l0.779952,0.182543c0.448059,0.099571 2.406239,0.514437 4.364419,0.929306c6.687681,1.427147 8.214395,1.759045 8.513102,1.842018c0.265514,0.082972 0.28211,-0.564224 0.28211,-11.865244c0,-11.284425 -0.016596,-11.964808 -0.28211,-11.948214c-0.165949,0 -0.514438,0.066379 -0.79655,0.132757zm-3.767004,6.671087c0.365084,0.132759 0.381679,0.215731 0.282108,0.862927c-0.066379,0.381678 -0.14935,0.713574 -0.165948,0.746764c-0.033189,0.033188 -0.481245,-0.03319 -1.028872,-0.132759c-1.145036,-0.232327 -1.808825,-0.049784 -2.041152,0.580818c-0.248922,0.663789 -0.033189,0.896113 1.39396,1.576498c2.024554,0.962494 2.422827,1.42715 2.422827,2.837703c0,2.007961 -1.924988,3.103214 -4.663119,2.638563l-1.161633,-0.199137l0.049785,-0.846332c0.049784,-0.962496 -0.016595,-0.929306 1.476932,-0.597411c1.078658,0.24892 1.908396,0.016594 2.124127,-0.580815c0.248919,-0.663792 0,-0.929306 -1.593095,-1.692663c-1.825421,-0.879521 -2.2071,-1.327579 -2.2071,-2.65516c0,-0.929305 0.398273,-1.692663 1.178227,-2.256884c0.713573,-0.547627 2.8377,-0.680386 3.932952,-0.282112z"/>
  <path fill="#0000bf" id="svg_3" d="m14.655261,4.74983c-0.068096,0.05107 -0.119166,1.038433 -0.119166,2.196034l0,2.076868l0.510706,0.119163c0.71499,0.153213 1.446997,-0.034046 2.059845,-0.561775l0.527731,-0.425588l0.595821,0.306425c0.646894,0.357494 1.412951,1.242715 1.412951,1.651277c0,0.136189 -0.153212,0.391544 -0.340469,0.56178c-0.817127,0.732008 -0.800106,2.332222 0,3.064233c0.493683,0.442609 0.425589,0.78308 -0.2894,1.481046c-0.714987,0.680939 -1.412952,1.089502 -1.412952,0.83415c0,-0.323448 -1.157597,-0.868197 -1.855564,-0.868197c-1.293787,0 -1.310811,0.034047 -1.208668,2.315198l0.085116,2.025799l0.612848,0.153214c0.340467,0.085115 0.834151,0.102137 1.089505,0.034046c0.680939,-0.170238 1.566166,-1.123554 1.702349,-1.82152c0.085119,-0.44261 0.2894,-0.680941 0.800106,-1.004385c0.374519,-0.238331 1.004389,-0.8682 1.378904,-1.412952c0.459639,-0.646894 0.817131,-0.970341 1.038439,-0.970341c0.493677,0 1.395926,-0.578799 1.736397,-1.106529c0.374516,-0.578798 0.374516,-1.804493 0,-2.383293c-0.340471,-0.527725 -1.24272,-1.106528 -1.719376,-1.106528c-0.238329,0 -0.561775,-0.30642 -0.936295,-0.885221c-0.340467,-0.47666 -0.987362,-1.140574 -1.446997,-1.446999c-0.476658,-0.323448 -0.885225,-0.680942 -0.919273,-0.783081c-0.221302,-0.766058 -0.766056,-1.617236 -1.191643,-1.872588c-0.47666,-0.289401 -1.88961,-0.408563 -2.110915,-0.170235z"/>
  <polygon strokeWidth="null" strokecolor="none" fill="#ffffff" edge="0" orient="x" sides="4" shape="regularPoly" id="svg_7" cy="1.8" cx="0.3"/>
  <polygon strokeWidth="null" strokecolor="none" fill="#ffffff" edge="0" orient="x" sides="4" shape="regularPoly" id="svg_8" cy="3.7" cx="1.1"/>
  <polygon strokeWidth="null" strokecolor="none" fill="#ffffff" edge="0" orient="x" shape="regularPoly" id="svg_11" cy="-3.8" cx="-20"/>
  <polygon strokeWidth="null" strokecolor="none" fill="#ffffff" edge="0" orient="x" shape="regularPoly" id="svg_12" cy="6.7" cx="7.3"/>
  <polygon stroke-width="null" points="NaN,NaN " strokeWidth="null" strokecolor="none" fill="#ffffff" edge="227.358728" orient="x" shape="regularPoly" id="svg_13" cy="3.7" cx="2.7"/>
 </g>
</svg>