<svg xmlns="http://www.w3.org/2000/svg" xmlns:svg="http://www.w3.org/2000/svg" width="24" height="24"><g><title>Layer 1</title><path d="m23.123276 4.699085l-4.761671 4.706944c0 0 -1.4 0 -2.8 -1.42303s-1.423029 -2.8 -1.4 -2.846059l4.761676 -4.761675c-2.681864 -0.7 -5.9 0.2 -7.9 2.189276c-2.955523 3 -0.3 6.7 -1.1 7.498269c-4.159625 4.3 -8.4 7.6 -8.5 7.771931c-1.258834 1.3 -1.3 3.3 -0.1 4.488014c1.204102 1.2 3.2 1.1 4.5 -0.109465c0.164196 -0.2 3.7 -4.6 7.8 -8.702371c0.766245 -0.8 4.4 2 7.4 -0.985175c1.915617 -2 2.8 -5.1 2.2 -7.82666zm-19.320357 16.474297c-0.766246 0 -1.4 -0.6 -1.4 -1.368296c0 -0.8 0.6 -1.4 1.4 -1.423027c0.766248 0 1.4 0.6 1.4 1.368298c0 0.8 -0.6 1.4 -1.4 1.423025z" fill="#607D8B"/></g></svg>