<svg xmlns="http://www.w3.org/2000/svg" xmlns:svg="http://www.w3.org/2000/svg" width="221" height="464">
 <title>MobilePhoneOutline</title>
 <g>
  <title>Layer 1</title>
  <g id="svg_1">
   <g id="Page-1" fill="none" fill-rule="evenodd">
    <path d="m3 164l-3 0l0 -17l3 0l0 -21l-3 0l0 -17l3 0l0 -22l-3 0l0 -21l3 0l0 -31.994122c0 -17.7 14.3 -32 32 -32.005878l114.008999 0l0 -2l36 0l0 2l4.008987 0c17.666367 0 32 14.3 32 32.005878l0 397.988232c0 17.7 -14.3 32 -32 32.00589l-154.017986 0c-17.666351 0 -32 -14.3 -32 -32.00589l0 -267.994125l0 0.000015zm91.00885 -124c-0.557167 0 -1 0.4 -1 1.009369l0 1.981262c0 0.6 0.5 1 1 1.009369l22.405289 0l12.587173 0c0.556656 0 1 -0.4 1 -1.009369l0 -1.981262c0 -0.6 -0.4 -1 -1 -1.009369l-34.9823 0zm17.49115 -11c2.485283 0 4.5 -2 4.5 -4.5c0 -2.5 -2 -4.5 -4.5 -4.5c-2.485283 0 -4.5 2 -4.5 4.5c0 2.5 2 4.5 4.5 4.5zm-93.505541 37c-1.101509 0 -2 0.9 -2 2.009651l0 330.980705c0 1.1 0.9 2 2 2.009644l188.01108 0c1.101501 0 2 -0.9 2 -2.009644l0 -330.980705c0 -1.1 -0.9 -2 -2 -2.009651l-188.01108 0zm94.005541 384c10.493408 0 19 -8.5 19 -19c0 -10.5 -8.5 -19 -19 -19c-10.493408 0 -19 8.5 -19 19c0 10.5 8.5 19 19 19zm-31 -405c1.656853 0 3 -1.3 3 -3c0 -1.7 -1.3 -3 -3 -3c-1.656853 0 -3 1.3 -3 3c0 1.7 1.3 3 3 3zm31 403c9.38884 0 17 -7.6 17 -17c0 -9.4 -7.6 -17 -17 -17c-9.38884 0 -17 7.6 -17 17c0 9.4 7.6 17 17 17z" id="Apple-iPhone-5S" fill="#7f8c8d"/>
   </g>
  </g>
 </g>
</svg>
