<svg xmlns="http://www.w3.org/2000/svg" xmlns:svg="http://www.w3.org/2000/svg" width="22" height="24">
 <g>
  <title>Layer 1</title>
  <g stroke="null" id="svg_9">
   <circle id="svg_1" r="10.4" cy="10.8" cx="10.9" fill="#FFF59D"/>
   <path id="svg_2" d="m17.7425 10.799998c0 -4 -3.4 -7.2 -7.6 -6.740246c-3.135 0.4 -5.6 2.9 -6 6.00875c-0.261249 2.4 0.7 4.5 2.4 5.904246c0.731497 0.6 1.2 1.5 1.2 2.508002l0 0.156744l6.27 0l0 -0.052246c0 -0.9 0.4 -1.9 1.1 -2.508001c1.515251 -1.3 2.5 -3.1 2.5 -5.277249z" fill="#FBC02D"/>
   <path stroke="null" id="svg_3" d="m14.398502 9.859499l-1.567502 -1.044998c-0.156752 -0.1 -0.4 -0.1 -0.6 0l-1.306248 0.835996l-1.254001 -0.835996c-0.156753 -0.1 -0.4 -0.1 -0.6 0l-1.567498 1.044998c-0.104498 0.1 -0.2 0.2 -0.2 0.365748s0 0.3 0.1 0.418001l1.985498 2.45575l0 5.538497l1.044997 0l0 -5.747495c0 -0.1 -0.1 -0.2 -0.1 -0.313501l-1.724248 -2.142248l0.78375 -0.522499l1.254001 0.835996c0.156752 0.1 0.4 0.1 0.6 0l1.253994 -0.835996l0.783754 0.522499l-1.724254 2.142248c-0.052247 0.1 -0.1 0.2 -0.1 0.313501l0 5.747495l1.044998 0l0 -5.538497l1.985502 -2.45575c0.1045 -0.1 0.2 -0.3 0.1 -0.418001s-0.1045 -0.3 -0.2 -0.365748z" fill="#FFF59D"/>
   <circle stroke="null" id="svg_4" r="1.6" cy="22.3" cx="10.9" fill="#5C6BC0"/>
   <path stroke="null" id="svg_5" d="m11.994999 22.817501l-2.089996 0c-1.149503 0 -2.1 -0.9 -2.1 -2.090002l0 -2.612503l6.27 0l0 2.612503c0 1.1 -0.9 2.1 -2.1 2.090002z" fill="#9FA8DA"/>
   <g stroke="null" id="svg_6" fill="#5C6BC0">
    <path stroke="null" id="svg_7" d="m14.085001 20.727499l-6.061003 0.835999c0.156752 0.4 0.5 0.7 0.8 0.9405l4.9115 -0.679249c0.208998 -0.3 0.3 -0.7 0.3 -1.09725z"/>
    <polygon stroke="null" id="svg_8" points="7.8,19.5 7.8,20.6 14.1,19.7 14.1,18.6"/>
   </g>
  </g>
 </g>
</svg>
