<svg xmlns="http://www.w3.org/2000/svg" xmlns:svg="http://www.w3.org/2000/svg" width="24" height="24"><g><title>Layer 1</title><g stroke="null"><path stroke="null" d="m14.336735 19.279478l-11.786848 0c-1.127437 0 -2 -0.9 -2 -2.049885l0 -13.324265c0 -1.1 0.9 -2 2 -2.049887l16.399093 0c1.127438 0 2 0.9 2 2.049887l0 8.712018c0 3.7 -3 6.7 -6.7 6.662131z" fill="#8CBCD6"/><circle stroke="null" r="1.5" cy="6.5" cx="16.4" fill="#B3DDF5"/><polygon stroke="null" points="8.7,6.5 3.1,14.7 14.3,14.7" fill="#9AC9E3"/><polygon stroke="null" points="14.3,9.5 10.2,14.7 18.4,14.7" fill="#B3DDF5"/><path stroke="null" d="m22.895012 13.181065l-1.434921 -1.434921c-0.204988 -0.2 -0.6 -0.2 -0.8 0l-0.666214 0.666214l2.254877 2.254875l0.666214 -0.666212c0.204988 -0.2 0.2 -0.6 0 -0.819956z" fill="#E57373"/><rect stroke="null" height="6.2" width="17.4" fill="#FF9800" transform="matrix(0.3623174603064053,-0.3623174603064053,0.3623174603064053,0.3623174603064053,-5.447956937278222,22.83128062702064) " y="20.7" x="28.9"/><rect stroke="null" height="6.2" width="3.1" fill="#B0BEC5" transform="matrix(-0.3623174603064053,0.3623174603064053,-0.3623174603064053,-0.3623174603064053,51.89915870723052,15.575194459441581) " y="42.2" x="39.7"/><polygon stroke="null" points="12.5,19.9 11.8,22.9 14.7,22.1" fill="#FFC107"/><polygon stroke="null" points="12.1,21.3 11.8,22.9 13.3,22.5" fill="#37474F"/></g></g></svg>