<svg xmlns="http://www.w3.org/2000/svg" xmlns:svg="http://www.w3.org/2000/svg" xmlns:xlink="http://www.w3.org/1999/xlink" width="28" height="24"><metadata>image/svg+xml</metadata><defs><linearGradient gradientUnits="userSpaceOnUse" y2="71.9" x2="206.2" y1="71.9" x1="46.2" gradientTransform="matrix(1.567692,0,0,1.567692,-69.82581,15.22741)"><stop offset="0" stop-color="#bf0a30"/><stop offset="0.1573" stop-color="#bf0a30"/><stop offset="0.31461" stop-color="#bf0a30"/><stop offset="0.65" stop-color="#ffffff"/><stop offset="0.83708" stop-color="#ffffff"/><stop offset="1" stop-color="#ffffff"/></linearGradient><linearGradient x1="87.4" y1="142" x2="240.9" y2="142" gradientUnits="userSpaceOnUse" gradientTransform="matrix(1.567692,0,0,1.567692,-129.3706,-94.56783)"><stop offset="0" stop-opacity="0.66667" stop-color="#ffffff"/><stop offset="0.24075" stop-opacity="0.21875" stop-color="#d7d7d7"/><stop offset="0.45856" stop-opacity="0" stop-color="#4d4d4d"/><stop offset="0.71892" stop-opacity="0.51042" stop-color="#ffffff"/><stop offset="0.87351" stop-opacity="0.4" stop-color="#f2f2f2"/><stop offset="1" stop-opacity="0.62353" stop-color="#ffffff"/></linearGradient><linearGradient x1="87.4" y1="142" x2="269.3" y2="142" xlink:href="#XMLID_22_" gradientUnits="userSpaceOnUse" gradientTransform="matrix(1.567692,0,0,1.567692,-129.3714,-94.56962)"/><linearGradient gradientTransform="matrix(1.567692,0,0,1.567692,-69.82581,15.22741)" gradientUnits="userSpaceOnUse" y2="112.3" x2="126.2" y1="39.6" x1="126.2"><stop offset="0" stop-color="#c200be"/><stop offset="0.19461" stop-color="#c200be"/><stop offset="0.31461" stop-color="#1000ae"/><stop offset="0.73" stop-color="#1000ae"/><stop offset="0.85708" stop-color="#00dab6"/><stop offset="1" stop-color="#00dab6"/></linearGradient><linearGradient xlink:href="#XMLID_17_" x1="133.2" y1="151.1" x2="132.6" y2="123.2" gradientUnits="userSpaceOnUse"/><linearGradient gradientUnits="userSpaceOnUse" y2="156.8" x2="131" y1="98.6" x1="131" xlink:href="#XMLID_17_"/><linearGradient gradientTransform="matrix(1.567692,0,0,1.567692,-69.82581,15.22741)" x1="46.2" y1="71.9" x2="206.2" y2="71.9" gradientUnits="userSpaceOnUse"><stop offset="0" stop-opacity="0.94118" stop-color="#00286f"/><stop offset="0.0159" stop-color="#002868"/><stop offset="0.24622" stop-opacity="0" stop-color="#002868"/><stop offset="1" stop-opacity="0" stop-color="#002868"/></linearGradient><linearGradient xlink:href="#XMLID_22_" x1="0" y1="0.5" x2="1.2" y2="0.5"/><linearGradient xlink:href="#XMLID_17_" gradientUnits="userSpaceOnUse" x1="131" y1="98.6" x2="131" y2="156.8"/><linearGradient xlink:href="#linearGradient10748" gradientUnits="userSpaceOnUse" x1="131" y1="98.6" x2="131" y2="156.8" gradientTransform="translate(-299.25602,-17.749805)"/><linearGradient xlink:href="#XMLID_22_" gradientUnits="userSpaceOnUse" gradientTransform="matrix(1.567692,0,0,1.567692,-129.3714,-94.56962)" x1="87.4" y1="142" x2="269.3" y2="142"/><linearGradient xlink:href="#linearGradient10748" gradientUnits="userSpaceOnUse" x1="131" y1="98.6" x2="131" y2="156.8"/><linearGradient xlink:href="#linearGradient10748" x1="0.3" y1="0.6" x2="0.5" y2="0.6"/><linearGradient xlink:href="#linearGradient3809" gradientUnits="userSpaceOnUse" x1="131" y1="98.6" x2="131" y2="156.8"/><linearGradient xlink:href="#linearGradient3809" x1="0.5" y1="0.4" x2="0.5" y2="0.7"/></defs><g><title>Layer 1</title><g stroke="null"><path d="m27.204222 1.519485c-8.882023 -4.7 -17.8 5.8 -26.6 0.825134c-0.30822 -0.2 -0.6 -0.1 -0.6 0.221774c0 6.3 0 12.6 0 18.833581c0 0.3 0.2 0.7 0.6 0.894304c8.974919 5.1 17.9 -5.7 26.9 -0.672529c0.308218 0.2 0.6 0.1 0.6 -0.221775c0 -6.3 0 -12.6 0 -18.833581c0 -0.3 -0.2 -0.7 -0.6 -0.894389c-0.092899 -0.1 -0.2 -0.1 -0.3 -0.152518z" fill="#333333"/><path d="m27.204222 20.632109c-8.789118 -4.7 -17.6 5.6 -26.4 0.977818c0 -6.1 0 -12.2 0 -18.2755c8.789033 4.6 17.6 -5.6 26.4 -0.977817c0 6.1 0 12.2 0 18.2755z" fill="#ffffff"/><path d="m22.3 0.2c-4.2 -0 -8.5 2.1 -12.8 3l0 9.2c5.9 -1.3 11.5 -4.7 17.5 -1.8l0 -9.2c-1.6 -0.9 -3.4 -1.3 -5.1 -1.3z" fill="#bf0a30"/><path stroke="null" d="m0.832465 3.289717c0 1.5 0 3 0 4.441524c0 0 0 0.1 0 0.088328c0 1.6 0 12.2 0 13.790013c2.925912 1.6 5.9 1.5 8.8 0.809566l0 -18.368276c-2.926913 0.6 -5.9 0.8 -8.8 -0.761156z" fill="#002868"/><g stroke="null" transform="matrix(0.03738801367566238,0.0032696420722247467,0,0.03738801367566238,0.7057719191757875,-3.1470216985937283) "><path stroke="#002868" d="m31.231783 284.3255c-15.630966 8.7 -18.5 12.4 -27 19.062927l18.997871 0.397522c-0.226173 1.8 -4.4 23.8 -4.8 25.350006c14.302782 -9.5 21.1 -13.9 40.6 -19.359131c7.753647 -2.2 -0.6 -10 -1.4 -12.126282c-5.301281 2.4 -9.4 5.2 -13.3 8.7" stroke-miterlimit="4" fill-rule="evenodd" fill="#ffca00"/><path stroke="#002868" d="m44.585602 306.181702c29.139198 -26.7 125.6 -26.1 152.4 0.824768c0.866348 -0.3 18.2 -29.6 17.4 -29.30954c-52.723328 -36.9 -147.2 -30.6 -186.8 -1.459229l0.470322 1.739777l16.588884 28.204193l-0.000004 0.000031z" stroke-miterlimit="4" fill-rule="evenodd" fill="#ffca00"/><path stroke="#002868" d="m49.59407 294.59903c-0.144718 -0.4 -8.5 -15.9 -8.5 -15.889008l13.630791 12.012451l-3.1716 -17.552063l8.927166 15" stroke-linejoin="round" stroke-linecap="round" stroke-width="3.125" fill="none"/><path stroke="#002868" d="m99.030312 267.811646c0.059402 -4.7 3.9 -5.1 6.5 -4.240387c1.534225 1.2 2.3 5 0.5 7.157837l-3.692383 3.146912c-1.276733 1.6 -2.7 3.4 -2.6 5.424683l8.342117 -0.3" stroke-linejoin="round" stroke-linecap="round" stroke-width="3.125" fill="none"/><path stroke="#002868" d="m114.17202 262.748505c-1.523499 0.7 -2 1.9 -2.4 3.665955c-0.227783 2 -0.1 6.7 0.3 8.707794c0.365601 1.5 0.7 2.4 1.8 3.37384c1.276733 0.7 2.7 0.6 3.5 0.091583c1.048141 -0.6 1.8 -1.8 2.1 -3.28302c0.59256 -1.9 0.5 -7.3 0.1 -9.346588c-0.379639 -1.3 -0.9 -2.4 -1.9 -3.191406c-1.276733 -0.5 -2.8 -0.4 -3.5 -0.018158l0 0l0 0z" stroke-linejoin="round" stroke-linecap="round" stroke-width="3.125" fill="none"/><path stroke="#002868" d="m154.012726 267.303589c1.587967 -0.7 2.8 -1.5 4.1 -3.029846l-2.343338 16.5" stroke-linejoin="round" stroke-linecap="round" stroke-width="3.125" fill="none"/><path stroke="#002868" d="m166.212341 266.45816c0.190521 0.1 7.9 2.3 7.9 2.322388c-3.774323 4.7 -6.9 8.9 -9.4 14.2" stroke-linejoin="round" stroke-linecap="round" stroke-width="3.125" fill="none"/><path stroke="#002868" d="m180.90332 270.571869l7.671967 3.78418c-4.554962 3.3 -8.3 7.4 -11.6 12.1" stroke-linejoin="round" stroke-linecap="round" stroke-width="3.125" fill="none"/><path stroke="#002868" d="m200.353897 280.497955l-5.025162 -2.946503l-4.44429 6.017517c3.192337 -0.6 5.3 0.3 6.3 3.231842c0.563141 4.3 -2 6.7 -4.8 6.779114c-2.908356 -0.1 -4.4 -1.7 -4.8 -5" stroke-linejoin="round" stroke-linecap="round" stroke-width="3.125" fill="none"/><path stroke="#002868" d="m64.775139 286.039917c0 0 0.5 -17.9 0.7 -17.905029c0.07901 -0.7 10.1 14.9 10.1 14.861267l0 0" stroke-linejoin="round" stroke-linecap="round" stroke-width="3.125" fill="none"/><path stroke="#002868" d="m65.103828 279.65509l6.822754 -2" stroke-linejoin="round" stroke-linecap="round" stroke-width="3.125" fill="none"/><path stroke="null" d="m25.275415 455.155884l9.96884 0.134094l-0.314972 -43.187561l19.108078 43.415405l10.372421 -0.000854l0 -63.52359l-10.12487 0.135834l0.153938 40.163086l-17.860184 -39.983398l-11.149305 0.134949l-0.153946 62.712036z" fill-rule="evenodd" fill="#ffca00"/><path stroke="null" d="m207.467896 412.148254l10.617126 0l-0.128113 -5.597473c-0.300873 -3.6 -1.7 -8.2 -5.2 -11.584351c-2.374451 -2.6 -5.2 -4.1 -8.8 -5.1315c-3.094864 -1.2 -10.7 -0.9 -14.5 1.294708c-4.548599 2.5 -8.4 7.1 -11 14.370605c-3.364807 12.3 -1.8 27.7 0.3 34.924988c2.538651 7.7 6.5 11.8 11.8 14.356934c3.29863 1.1 9.1 2 14.4 0.495178c5.866501 -2.2 8.5 -6.1 10.9 -10.179718c1.414215 -2.8 3 -8.1 2.8 -14.020721l-11.077896 0.13501c0.007996 2.2 -0.4 4.7 -1 6.819946c-1.253433 3 -3.2 5 -8 5.044647c-3.22554 -0 -5.4 -1.3 -7.2 -3.712128c-2.43634 -2.4 -3.1 -7.6 -3.2 -9.105865c-0.734161 -6.7 -0.8 -13.4 1.2 -20.387604c0.73761 -2.8 2.2 -5.5 4.1 -6.731384c3.109482 -1.7 6.3 -1.4 8.1 -0.904388c2.388199 0.7 4.6 2.5 5.3 4.88562c0.534714 2.2 0.6 3.6 0.7 5.027466l0 0.000031z" fill-rule="evenodd" fill="#ffca00"/><path stroke="null" d="m145.833466 457.241638l-23.798668 -18.494812l-24.425919 18.380249l9.678574 -28.784912l-24.763474 -18.221863l29.780334 0.704712l9.121262 -29.641846l8.726723 29.220337l30.400696 -0.097809l-24.386932 17.354462l9.667404 29.581482z" fill-rule="evenodd" fill="#ffffff"/><path stroke="#000000" d="m44.594597 306.286804c0 0 0 0 0 0" stroke-width="1pt" fill="none"/><path stroke="#002868" d="m44.668182 306.198212c1.048241 1.1 3.1 0.8 6 0.26358c2.282967 -0.3 4.9 -0.4 6.9 -0.616577c3.388668 0.3 5.3 1.1 3.9 2.7" stroke-miterlimit="4" fill="none"/><path stroke="#002868" d="m210.481827 285.268066c15.630936 8.7 18.5 12.4 27 19.062897l-18.997818 0.397552c0.226166 1.8 4.4 23.8 4.8 25.349976c-14.30278 -9.5 -21.1 -13.9 -40.6 -19.359131c-7.753662 -2.2 0.9 -10.2 1.7 -12.265961c5.301208 2.4 9.8 5.2 13 8.9" stroke-miterlimit="4" fill-rule="evenodd" fill="#ffca00"/><path stroke="#000000" d="m197.118027 307.229431c0 0 0 0 0 0" stroke-width="1pt" fill="none"/><path stroke="#002868" d="m196.821701 307.140839c-1.754807 0.8 -3.6 0.5 -5.8 0.26358c-2.079361 -0.3 -4.4 -0.7 -6.8 -0.735809c-3.91478 0 -5.3 1.7 -4.1 2.8" stroke-miterlimit="4" fill="none"/><path stroke="#002868" d="m123.210991 268.885651c3.025925 0.1 6 0.2 6 0.2" stroke-linejoin="round" stroke-linecap="round" stroke-width="2.25" fill="none"/><path stroke="#002868" d="m132.503448 264.931l-0.352814 14.4" stroke-linejoin="round" stroke-linecap="round" stroke-width="2.25" fill="none"/><path stroke="#002868" d="m138.781738 280.007568c0.843704 -10.4 -0.5 -10.7 -5.5 -10.7" stroke-linejoin="round" stroke-linecap="round" stroke-width="2.25" fill="none"/><path stroke="#002868" d="m125.571342 264.408844l-0.222748 11.988861c-0.032303 2.3 0.7 2.9 2.7 2.9" stroke-linejoin="round" stroke-linecap="round" stroke-width="2.25" fill="none"/><path stroke="#002868" d="m74.437531 265.976257l7.411308 7.518951l1.338539 8.2" stroke-linejoin="round" stroke-linecap="round" stroke-width="3.125" fill="none"/><path stroke="#002868" d="m86.085106 263.393188l-4.061287 10.5" stroke-linejoin="round" stroke-linecap="round" stroke-width="3.125" fill="none"/><path stroke="#002868" d="m31.861734 554.468018c-15.630972 -8.5 -18.5 -12.1 -27 -18.641113l18.99786 -0.388733c-0.226166 -1.7 -4.4 -23.3 -4.8 -24.789063c14.302786 9.3 21.1 13.6 40.6 18.930786c7.753658 2.1 -0.6 9.8 -1.4 11.85791c-5.301296 -2.3 -9.4 -5.1 -13.3 -8.5" stroke-miterlimit="4" fill-rule="evenodd" fill="#ffca00"/><path stroke="#002868" d="m45.215557 533.095215c29.139194 26.1 125.6 25.5 152.4 -0.80658c0.866364 0.3 18.2 29 17.4 28.661072c-52.723297 36.1 -147.2 29.9 -186.8 1.426941l0.470322 -1.701294l16.588884 -27.580139l0.000008 0z" stroke-miterlimit="4" fill-rule="evenodd" fill="#ffca00"/><path stroke="#000000" d="m44.594597 533.307495c0 0 0 0 0 0" stroke-width="0.98887253pt" fill="none"/><path stroke="#002868" d="m45.298119 533.079163c1.048244 -1 3.1 -0.8 6 -0.257751c2.282959 0.3 4.9 0.4 6.9 0.602966c3.38866 -0.3 5.3 -1 3.9 -2.6" stroke-miterlimit="4" fill="none"/><path stroke="#002868" d="m211.110886 553.546326c15.630936 -8.5 18.5 -12.1 27 -18.641052l-18.997818 -0.388794c0.226166 -1.7 4.4 -23.3 4.8 -24.789001c-14.302795 9.3 -21.1 13.6 -40.6 18.930725c-7.753662 2.1 0.9 9.9 1.7 11.994568c5.301208 -2.3 9.8 -5.1 13 -8.7" stroke-miterlimit="4" fill-rule="evenodd" fill="#ffca00"/><path stroke="#000000" d="m197.118027 532.385864c0 0 0 0 0 0" stroke-width="0.98887253pt" fill="none"/><path stroke="#002868" d="m197.451599 532.157532c-1.754807 -0.8 -3.6 -0.4 -5.8 -0.257751c-2.079361 0.3 -4.4 0.6 -6.8 0.719482c-3.91478 -0 -5.3 -1.6 -4.1 -2.7" stroke-miterlimit="4" fill="none"/><path stroke="#002868" d="m120.560326 567.326965c1.255188 -4.3 4.1 -3.8 6.7 -3.18988c2.048164 1.4 2.3 5.2 0.4 7.464417l-3.590027 2.733826c-1.518036 1 -3 2.9 -3 4.97052l8.694344 -0.2" stroke-linejoin="round" stroke-linecap="round" stroke-width="3.125" fill="none"/><path stroke="#002868" d="m111.782387 566.744812c1.574966 -0.9 2 -1.2 3.2 -2.947266l-0.673248 15.6" stroke-linejoin="round" stroke-linecap="round" stroke-width="3.125" fill="none"/><path stroke="#002868" d="m92.607567 559.893127c-0.002701 0.1 -2.6 16.3 -2.8 16.93103l8.423172 1.2" stroke-linecap="round" stroke-width="3.125" fill="none"/><path stroke="#002868" d="m82.717789 575.961853l2.592392 -17.6" stroke-linejoin="round" stroke-linecap="round" stroke-width="3.125" fill="none"/><path stroke="#002868" d="m52.626701 566.711609l6.42654 -16.31604c1.924774 1 4.4 1.3 6.5 3.253906c1.388832 2.3 0.7 7 -3.2 7.494141c-2.192772 -0.3 -4 -1.4 -5.9 -2.2" stroke-linecap="round" stroke-width="3.125" fill="none"/><path stroke="#002868" d="m157.745285 563.407959c1.271042 -1.2 2.1 -2.5 2.9 -4.510437l3.285568 17.3" stroke-linejoin="round" stroke-linecap="round" stroke-width="3.08431" fill="none"/><path stroke="#002868" d="m165.160583 558.424561c0.20546 -0.1 8.4 -2.9 8.4 -2.923096c-0.377579 6.3 -0.5 12.3 0.3 17.9" stroke-linejoin="round" stroke-linecap="round" stroke-width="3.125" fill="none"/><path stroke="#002868" d="m177.881805 554.016663l8.413757 -3.292847c-0.361588 6.4 -0.8 13.1 0.4 17.9" stroke-linejoin="round" stroke-linecap="round" stroke-width="3.125" fill="none"/><path stroke="#002868" d="m197.874084 547.421204c-0.960999 -1.6 -2.4 -2.2 -4.5 -1.632141c-1.91391 1.7 -2.3 3 -2.4 5.047058c0.078705 2.5 0.8 5 1.9 7.264709c0.788681 2.1 2.5 3.6 3.8 3.895752c1.454269 0.5 2.5 0.4 3.7 -0.60968c0.889816 -1.1 1.3 -3 1.2 -4.427917c-0.276825 -1.9 -1.1 -3.6 -3 -4.592163c-1.487411 -0.6 -2.1 -0.7 -3.4 -0.163635c-2.03894 1.2 -2.4 3.4 -2.1 5.7" stroke-linejoin="round" stroke-linecap="round" stroke-width="3.125" fill="none"/><path stroke="#002868" d="m131.838745 568.725098c3.023178 -0.1 6 -0.2 6 -0.2" stroke-linejoin="round" stroke-linecap="round" stroke-width="2.25" fill="none"/><path stroke="#002868" d="m133.905304 564.105164l0.551239 11.978333c0.114563 2.3 0.9 2.9 2.8 2.7" stroke-linejoin="round" stroke-linecap="round" stroke-width="2.25" fill="none"/><path stroke="#002868" d="m139.767822 563.98053l1.660431 14.3" stroke-linejoin="round" stroke-linecap="round" stroke-width="2.25" fill="none"/><path stroke="#002868" d="m148.086197 578.035156c-0.607071 -10.4 -2 -10.5 -6.9 -9.8" stroke-linejoin="round" stroke-linecap="round" stroke-width="2.25" fill="none"/><path stroke="#002868" d="m37.594757 559.427429c0 0 12.9 -13.5 13 -13.390381c0.566898 -0.5 -2.5 18.6 -2.5 18.558167l0 0" stroke-linejoin="round" stroke-linecap="round" stroke-width="3.125" fill="none"/><path stroke="#002868" d="m42.301529 554.715942l6.679745 3.2" stroke-linejoin="round" stroke-linecap="round" stroke-width="3.125" fill="none"/><path stroke="#002868" d="m66.639282 572.561951c-0.002403 -0.1 4.7 -17.5 4.7 -17.506775c2.007668 0.5 4.1 0.8 6 1.462891c1.341484 0.4 3.4 2.1 2.6 4.779297c-0.370468 1.6 -1.1 3.1 -2.3 4" stroke-linecap="round" stroke-width="3.125" fill="none"/><path stroke="#002868" d="m69.261185 563.563721l6.4077 1.643188c1.725975 0.6 2.1 2.1 2.1 2.22522c0.320999 1.4 -0.8 7.5 -0.8 7.5" stroke-linejoin="round" stroke-linecap="round" stroke-width="3.125" fill="none"/></g></g></g></svg>