<svg xmlns="http://www.w3.org/2000/svg" xmlns:svg="http://www.w3.org/2000/svg" width="24" height="24"><g><title>Layer 1</title><g stroke="null"><path stroke="null" d="m0.5 19.138887l0 -16.527776c0 -1.3 1.1 -2.4 2.4 -2.361111l8.263888 0c1.298612 0 2.4 1.1 2.4 2.361111l0 16.527776c0 1.3 -1.1 2.4 -2.4 2.361113l-8.263888 0c-1.298611 0 -2.4 -1.1 -2.4 -2.361113z" fill="#37474F"/><path stroke="null" d="m11.124999 2.020833l-8.263888 0c-0.354167 0 -0.6 0.2 -0.6 0.590278l0 14.756943c0 0.4 0.2 0.6 0.6 0.590279l8.263888 0c0.354167 0 0.6 -0.2 0.6 -0.590279l0 -14.756943c0 -0.4 -0.2 -0.6 -0.6 -0.590278z" fill="#BBDEFB"/><rect stroke="null" height="1.2" width="3.5" fill="#78909C" y="19.1" x="5.2"/><path d="m8.763888 21.5l0 -16.527778c0 -1.3 1.1 -2.4 2.4 -2.361111l8.263888 0c1.298613 0 2.4 1.1 2.4 2.361111l0 16.527778c0 1.3 -1.1 2.4 -2.4 2.361109l-8.263888 0c-1.298612 0 -2.4 -1.1 -2.4 -2.361109z" fill="#E38939"/><path d="m19.388887 4.381944l-8.263888 0c-0.354167 0 -0.6 0.2 -0.6 0.590278l0 14.756944c0 0.4 0.2 0.6 0.6 0.590277l8.263888 0c0.354166 0 0.6 -0.2 0.6 -0.590277l0 -14.756944c0 -0.4 -0.2 -0.6 -0.6 -0.590278z" fill="#FFF3E0"/><circle stroke="null" r="0.9" cy="22.1" cx="15.3" fill="#A6642A"/></g></g></svg>